<?xml version="1.0" encoding="UTF-8"?>
<svg width="360px" height="390px" viewBox="0 0 360 390" version="1.1" xmlns="http://www.w3.org/2000/svg" xmlns:xlink="http://www.w3.org/1999/xlink">
    <!-- Generator: Sketch 50.2 (55047) - http://www.bohemiancoding.com/sketch -->
    <title>logo</title>
    <desc>Created with Sketch.</desc>
    <defs></defs>
    <g id="Page-1" stroke="none" stroke-width="1" fill="none" fill-rule="evenodd">
        <path d="M90,135 L137,135 L137,121 L62,121 L0.496018687,90.2480093 C35.121433,35.9849277 95.8583514,0 165,0 C272.695526,0 360,87.3044738 360,195 C360,302.695526 272.695526,390 165,390 C96.1804591,390 35.6875213,354.349575 0.981641547,300.509179 L64,269 L137,269 L137,255 L92,255 L211,195.5 L90,135 Z M258,141 C265.179702,141 271,135.179702 271,128 C271,120.820298 265.179702,115 258,115 C250.820298,115 245,120.820298 245,128 C245,135.179702 250.820298,141 258,141 Z M211,275 C218.179702,275 224,269.179702 224,262 C224,254.820298 218.179702,249 211,249 C203.820298,249 198,254.820298 198,262 C198,269.179702 203.820298,275 211,275 Z" id="Combined-Shape" fill="#FFFAFF"></path>
    </g>
</svg>